<svg width="128" height="128" viewBox="0 0 128 128" fill="none" xmlns="http://www.w3.org/2000/svg">
<path opacity="0.15" d="M3.49263 110.042C3.49257 110.042 3.49289 110.041 3.49375 110.04C3.49312 110.041 3.49269 110.042 3.49263 110.042ZM3.54106 110.015C3.53531 110.01 3.5302 110.005 3.52568 110C3.5302 109.995 3.53529 109.99 3.54103 109.985C3.6153 109.913 3.75401 109.817 3.98439 109.707L3.76801 109.256C4.2553 109.022 4.97026 108.793 5.90086 108.572L6.01651 109.058C6.63767 108.911 7.36087 108.765 8.1834 108.624L8.09865 108.131C8.77441 108.015 9.51394 107.902 10.3152 107.792L10.3832 108.287C11.0742 108.192 11.8121 108.1 12.5955 108.01L12.5387 107.513C13.2457 107.432 13.9893 107.354 14.7682 107.277L14.8169 107.775C15.1809 107.74 15.5527 107.704 15.9323 107.67C16.2497 107.641 16.5715 107.613 16.8976 107.585L16.855 107.087C17.4862 107.033 18.1332 106.981 18.7949 106.93L18.8328 107.429C19.4657 107.381 20.1122 107.335 20.7714 107.29L20.7377 106.791C21.3737 106.748 22.0215 106.707 22.6803 106.667L22.7104 107.166C23.3469 107.128 23.9936 107.091 24.65 107.056L24.6232 106.556C25.2624 106.522 25.9106 106.489 26.5671 106.458L26.5909 106.957C27.2305 106.927 27.878 106.898 28.5328 106.87L28.5117 106.371C29.1533 106.344 29.8019 106.318 30.4569 106.294L30.4754 106.793C31.1171 106.77 31.765 106.747 32.4185 106.726L32.4025 106.227C33.0459 106.206 33.6947 106.187 34.3485 106.169L34.3622 106.669C35.0056 106.651 35.6538 106.635 36.3063 106.62L36.2949 106.12C36.9394 106.106 37.5882 106.092 38.2407 106.08L38.2499 106.58C38.8944 106.568 39.5426 106.558 40.1939 106.548L40.1867 106.048C40.8326 106.039 41.4815 106.031 42.1331 106.025L42.1382 106.525C42.7839 106.518 43.4323 106.513 44.0828 106.509L44.0798 106.009C44.7267 106.005 45.3758 106.002 46.0266 106.001L46.0276 106.501C46.3513 106.5 46.6755 106.5 47 106.5C47.3245 106.5 47.6487 106.5 47.9724 106.501L47.9734 106.001C48.6242 106.002 49.2733 106.005 49.9202 106.009L49.9172 106.509C50.5677 106.513 51.2161 106.518 51.8618 106.525L51.8669 106.025C52.5185 106.031 53.1674 106.039 53.8133 106.048L53.8061 106.548C54.4574 106.558 55.1056 106.568 55.7501 106.58L55.7593 106.08C56.4118 106.092 57.0606 106.106 57.7051 106.12L57.6937 106.62C58.3462 106.635 58.9944 106.651 59.6378 106.669L59.6515 106.169C60.3053 106.187 60.9541 106.206 61.5975 106.227L61.5815 106.726C62.235 106.747 62.8829 106.77 63.5246 106.793L63.5431 106.294C64.1981 106.318 64.8467 106.344 65.4883 106.371L65.4672 106.87C66.1221 106.898 66.7695 106.927 67.4091 106.957L67.4329 106.458C68.0894 106.489 68.7376 106.522 69.3768 106.556L69.35 107.056C70.0064 107.091 70.6531 107.128 71.2896 107.166L71.3197 106.667C71.9785 106.707 72.6263 106.748 73.2623 106.791L73.2286 107.29C73.8878 107.335 74.5343 107.381 75.1672 107.429L75.2051 106.93C75.8668 106.981 76.5138 107.033 77.145 107.087L77.1024 107.585C77.4285 107.613 77.7503 107.641 78.0677 107.67C78.4473 107.704 78.8191 107.74 79.1831 107.775L79.2318 107.277C80.0107 107.354 80.7543 107.432 81.4613 107.513L81.4045 108.01C82.1879 108.1 82.9258 108.192 83.6168 108.287L83.6848 107.792C84.4861 107.902 85.2256 108.015 85.9014 108.131L85.8166 108.624C86.6391 108.765 87.3623 108.911 87.9835 109.058L88.0991 108.572C89.0297 108.793 89.7447 109.022 90.232 109.256L90.0156 109.707C90.246 109.817 90.3847 109.913 90.459 109.985C90.4647 109.99 90.4698 109.995 90.4743 110C90.4698 110.005 90.4647 110.01 90.4589 110.015C90.3847 110.087 90.246 110.183 90.0156 110.294L90.232 110.744C89.7448 110.978 89.0298 111.207 88.0993 111.429L87.9836 110.942C87.3624 111.09 86.6392 111.235 85.8167 111.377L85.9015 111.869C85.2257 111.986 84.4862 112.099 83.6849 112.209L83.6169 111.714C82.9258 111.809 82.188 111.901 81.4045 111.991L81.4614 112.488C80.7543 112.569 80.0108 112.647 79.2318 112.724L79.1831 112.226C78.8191 112.261 78.4473 112.297 78.0677 112.331C77.7503 112.36 77.4285 112.388 77.1024 112.416L77.145 112.914C76.5138 112.968 75.8668 113.02 75.2051 113.071L75.1672 112.572C74.5343 112.62 73.8878 112.666 73.2286 112.711L73.2623 113.21C72.6263 113.253 71.9785 113.294 71.3197 113.334L71.2896 112.835C70.6532 112.873 70.0064 112.91 69.35 112.945L69.3768 113.444C68.7376 113.479 68.0894 113.512 67.4329 113.543L67.4091 113.043C66.7696 113.074 66.1221 113.103 65.4672 113.13L65.4882 113.63C64.8467 113.657 64.1981 113.683 63.5431 113.707L63.5247 113.207C62.883 113.231 62.2351 113.253 61.5815 113.274L61.5975 113.774C60.9541 113.794 60.3052 113.813 59.6515 113.831L59.6378 113.331C58.9944 113.349 58.3462 113.365 57.6937 113.38L57.7051 113.88C57.0605 113.895 56.4118 113.908 55.7593 113.92L55.7501 113.42C55.1056 113.432 54.4574 113.443 53.8061 113.452L53.8132 113.952C53.1674 113.961 52.5185 113.969 51.8669 113.975L51.8618 113.476C51.2161 113.482 50.5677 113.487 49.9172 113.491L49.9202 113.991C49.2733 113.995 48.6242 113.998 47.9734 113.999L47.9724 113.499C47.6487 113.5 47.3245 113.5 47 113.5C46.6755 113.5 46.3513 113.5 46.0276 113.499L46.0266 113.999C45.3758 113.998 44.7267 113.995 44.0798 113.991L44.0828 113.491C43.4323 113.487 42.7839 113.482 42.1382 113.476L42.1331 113.975C41.4815 113.969 40.8326 113.961 40.1868 113.952L40.1939 113.452C39.5426 113.443 38.8944 113.432 38.2499 113.42L38.2407 113.92C37.5882 113.908 36.9395 113.895 36.2949 113.88L36.3063 113.38C35.6538 113.365 35.0056 113.349 34.3622 113.331L34.3485 113.831C33.6948 113.813 33.0459 113.794 32.4025 113.774L32.4185 113.274C31.7649 113.253 31.117 113.231 30.4753 113.207L30.4569 113.707C29.8019 113.683 29.1533 113.657 28.5118 113.63L28.5328 113.13C27.8779 113.103 27.2304 113.074 26.5909 113.043L26.5671 113.543C25.9106 113.512 25.2624 113.479 24.6232 113.444L24.65 112.945C23.9936 112.91 23.3468 112.873 22.7104 112.835L22.6803 113.334C22.0215 113.294 21.3737 113.253 20.7377 113.21L20.7714 112.711C20.1122 112.666 19.4657 112.62 18.8328 112.572L18.7949 113.071C18.1332 113.02 17.4862 112.968 16.855 112.914L16.8976 112.416C16.5715 112.388 16.2497 112.36 15.9323 112.331C15.5527 112.297 15.1809 112.261 14.8169 112.226L14.7682 112.724C13.9892 112.647 13.2457 112.569 12.5386 112.488L12.5955 111.991C11.812 111.901 11.0742 111.809 10.3831 111.714L10.3151 112.209C9.51384 112.099 8.7743 111.986 8.09854 111.869L8.18333 111.377C7.3608 111.235 6.63761 111.09 6.01645 110.942L5.90075 111.429C4.97017 111.207 4.25522 110.978 3.76795 110.744L3.9844 110.294C3.75404 110.183 3.61533 110.087 3.54106 110.015ZM90.5074 110.042C90.5073 110.042 90.5069 110.041 90.5062 110.04C90.5071 110.041 90.5074 110.042 90.5074 110.042ZM90.5074 109.958C90.5074 109.958 90.5071 109.959 90.5062 109.96C90.5069 109.959 90.5073 109.958 90.5074 109.958ZM3.49264 109.958C3.4927 109.958 3.49313 109.959 3.49376 109.96C3.4929 109.959 3.49258 109.958 3.49264 109.958Z" stroke="#87635A" stroke-linejoin="round" stroke-dasharray="2 2"/>
<path d="M73.3333 33L73.1111 31L73.6081 30.9448L73.5209 30.1606L74.1296 29.4504L73.75 29.125L75.25 27.375L75.6296 27.7004L77.1296 25.9504L76.75 25.625L78.25 23.875L78.6296 24.2004L79.23 23.5H79.9773V23H81.9318V23.5H83.8864V23H85.8409V23.5H87.7955V23H89.75V23.5H91.7045V23H93.6591V23.5H95.6136V23H97.5682V23.5H99.5227V23H101.477V23.5H103.432V23H105.386V23.5H107.341V23H109.295V23.5H111.25V23H113.205V23.5H115.159V23H117.114V23.5H119.068V23H121.023V23.5H121.579L121.674 24.044L122.167 23.9583L122.5 25.875L122.007 25.9607L122.341 27.8773L122.833 27.7917L123.167 29.7083L122.674 29.794L123.007 31.7107L123.5 31.625L123.833 33.5417L123.341 33.6273L123.5 34.5407C123.491 34.9197 123.368 35.1496 123.228 35.2835L123.573 35.6456C123.024 36.168 122.051 36.1129 121.273 35.4803L121.588 35.0923C121.347 34.8963 121.122 34.6261 120.947 34.2764C120.839 34.059 120.589 33.9513 120.356 34.0211C120.124 34.0908 119.975 34.3179 120.004 34.5592L120.129 35.6067L120.618 35.5483C120.62 35.5514 120.623 35.5546 120.626 35.5577L120.875 37.6423L120.379 37.7016L120.629 39.7964L121.125 39.7372L121.375 41.8321L120.879 41.8913L121.128 43.9862L121.625 43.927L121.875 46.0218L121.378 46.0811L121.628 48.176L122.125 48.1167L122.375 50.2116L121.878 50.2708L122.128 52.3657L122.625 52.3065L122.875 54.4014L122.378 54.4606L122.628 56.5555L123.125 56.4962L123.375 58.5911L122.878 58.6504L122.945 59.2098L122.463 59.2757L122.531 59.7711L120.594 60.0361L120.526 59.5408L118.588 59.8058L118.656 60.3012L116.719 60.5663L116.651 60.0709L114.713 60.3359L114.781 60.8313L112.844 61.0964L112.776 60.601L110.838 60.8661L110.906 61.3614L108.969 61.6265L108.901 61.1311L106.963 61.3962L107.031 61.8916L105.094 62.1566L105.026 61.6612L103.088 61.9263L103.156 62.4217L101.219 62.6867L101.151 62.1914L99.2134 62.4564L99.2812 62.9518L97.3437 63.2169L97.2759 62.7215L95.3384 62.9865L95.4062 63.4819L93.4687 63.747L93.4009 63.2516L91.4635 63.5167L91.5312 64.012L89.5937 64.2771L89.526 63.7817L87.5885 64.0468L87.6562 64.5422L85.7187 64.8072L85.651 64.3118L83.7135 64.5769L83.7812 65.0723L81.8437 65.3373L81.776 64.842L79.8385 65.107L79.9062 65.6024L77.9687 65.8675L77.901 65.3721L77.4403 65.4351L77.3858 64.9448L76.8889 65L76.6667 63L77.1636 62.9448L76.9414 60.9448L76.4444 61L76.2222 59L76.7192 58.9448L76.4969 56.9448L76 57L75.7778 55L76.2747 54.9448L76.0525 52.9448L75.5556 53L75.3333 51L75.8303 50.9448L75.6081 48.9448L75.1111 49L74.8889 47L75.3858 46.9448L75.1636 44.9448L74.6667 45L74.4444 43L74.9414 42.9448L74.7192 40.9448L74.2222 41L74 39L74.4969 38.9448L74.2747 36.9448L73.7778 37L73.5556 35L74.0525 34.9448L73.8303 32.9448L73.3333 33Z" fill="#CAAFA7" stroke="#87635A" stroke-linejoin="round" stroke-dasharray="2 2"/>
<path d="M85.6875 15.1266L86.8958 13.7099L87.2762 14.0344L87.7291 13.5034C87.9785 13.5055 88.2263 13.508 88.4725 13.5108L88.4784 13.0109C89.1352 13.0185 89.7815 13.0289 90.4171 13.0421L90.4068 13.542C91.0625 13.5557 91.7069 13.5723 92.3401 13.5919L92.3556 13.0921C93.0136 13.1125 93.6595 13.1361 94.2936 13.163L94.2724 13.6626C94.9288 13.6905 95.5723 13.7218 96.203 13.7568L96.2307 13.2576C96.8894 13.2941 97.5343 13.3344 98.1658 13.3788L98.1308 13.8775C98.7866 13.9236 99.4276 13.9738 100.054 14.0284L100.097 13.5303C100.755 13.5876 101.397 13.6497 102.023 13.7165L101.97 14.2137C102.627 14.2838 103.266 14.3592 103.888 14.44L103.953 13.9442C104.612 14.0298 105.253 14.1215 105.875 14.2192L105.797 14.7132C106.448 14.8155 107.077 14.9245 107.686 15.0402L107.779 14.549C108.437 14.6741 109.072 14.8071 109.683 14.9482L109.57 15.4354C110.214 15.5839 110.831 15.7412 111.422 15.9075L111.557 15.4262C112.204 15.6084 112.822 15.8015 113.409 16.0055L113.245 16.4779C113.872 16.6952 114.462 16.9248 115.018 17.1666L115.218 16.7081C115.837 16.9774 116.416 17.2623 116.957 17.5633L116.713 18.0001C117.286 18.3189 117.811 18.6549 118.29 19.008L118.587 18.6054C119.129 19.0047 119.618 19.4271 120.055 19.873L119.698 20.2231C120.141 20.6749 120.527 21.1505 120.859 21.6505L121.276 21.374C121.635 21.9157 121.936 22.4862 122.179 23.0862L121.716 23.2742C121.757 23.3748 121.796 23.4763 121.833 23.5787L121.409 23.6302L121.469 24.1266L119.406 24.3766L119.346 23.8802L117.284 24.1302L117.344 24.6266L115.281 24.8766L115.221 24.3802L113.159 24.6302L113.219 25.1266L111.156 25.3766L111.096 24.8802L109.034 25.1302L109.094 25.6266L107.031 25.8766L106.971 25.3802L104.909 25.6302L104.969 26.1266L102.906 26.3766L102.846 25.8802L100.784 26.1302L100.844 26.6266L98.7813 26.8766L98.7211 26.3802L96.6586 26.6302L96.7188 27.1266L94.6563 27.3766L94.5961 26.8802L92.5336 27.1302L92.5938 27.6266L90.5313 27.8766L90.4711 27.3802L88.4086 27.6302L88.4688 28.1266L86.4062 28.3766L86.3461 27.8802L84.2836 28.1302L84.3438 28.6266L82.2813 28.8766L82.2211 28.3802L80.1586 28.6302L80.2188 29.1266L78.1562 29.3766L78.0961 28.8802L76.0336 29.1302L76.0938 29.6266L74.0312 29.8766L73.9711 29.3802L73.7391 29.4083L73.6042 29.2932L74.8125 27.8766L75.1929 28.201L76.4013 26.7844L76.0208 26.4599L77.2292 25.0432L77.6096 25.3677L78.8179 23.951L78.4375 23.6266L79.6458 22.2099L80.0262 22.5344L81.2346 21.1177L80.8542 20.7932L82.0625 19.3766L82.4429 19.701L83.6513 18.2844L83.2708 17.9599L84.4792 16.5432L84.8596 16.8677L86.0679 15.451L85.6875 15.1266Z" fill="#CAAFA7" stroke="#87635A" stroke-linejoin="round" stroke-dasharray="2 2"/>
<path d="M91.875 63.0632L91.625 65.1882L91.1284 65.1298L90.8784 67.2548L91.375 67.3132L91.125 69.4382L90.6284 69.3798L90.3784 71.5048L90.875 71.5632L90.625 73.6882L90.1284 73.6298L89.8784 75.7548L90.375 75.8132L90.125 77.9382L89.6284 77.8798L89.5042 78.9357C89.4417 79.3691 89.3738 79.7389 89.2997 80.0555L89.7865 80.1694C89.5173 81.3198 89.1546 81.8716 88.6335 82.1678L88.3864 81.7331C88.1552 81.8645 87.8591 81.9399 87.4244 82.0065C87.1982 82.0411 87.0244 82.2248 87.0023 82.4526L86.9086 83.4213L87.4062 83.4695L87.2188 85.407L86.7211 85.3588L86.5336 87.2963L87.0312 87.3445L86.8438 89.282L86.3461 89.2338L86.1586 91.1713L86.6562 91.2195L86.4688 93.157L85.9711 93.1088L85.7836 95.0463L86.2812 95.0945L86.0938 97.032L85.5961 96.9838L85.5207 97.763C85.3324 97.9357 85.1399 98.1061 84.9432 98.2742L85.2681 98.6543C84.7736 99.077 84.2539 99.4853 83.7105 99.8791L83.4171 99.4742C82.8997 99.8492 82.3599 100.211 81.7988 100.56L82.0629 100.985C81.509 101.329 80.9354 101.661 80.3434 101.98L80.1063 101.54C79.5437 101.842 78.9637 102.134 78.3673 102.414L78.5798 102.866C77.991 103.143 77.387 103.408 76.7687 103.662L76.5789 103.199C75.9823 103.444 75.3719 103.678 74.7486 103.902L74.9175 104.372C74.301 104.594 73.6723 104.805 73.0325 105.005L72.8829 104.528C72.2673 104.721 71.641 104.905 71.0048 105.079L71.1366 105.561C70.5065 105.733 69.867 105.896 69.2189 106.05L69.1037 105.563C68.4706 105.713 67.8291 105.854 67.1798 105.986L67.2793 106.476C66.6373 106.606 65.988 106.728 65.332 106.841L65.2472 106.348C64.6068 106.458 63.9599 106.56 63.3072 106.653L63.378 107.148C62.7273 107.241 62.071 107.326 61.4096 107.403L61.3521 106.906C60.7042 106.981 60.0513 107.048 59.3941 107.107L59.4387 107.605C58.7849 107.663 58.1268 107.714 57.4653 107.757L57.433 107.258C56.7797 107.3 56.1228 107.335 55.4631 107.362L55.4834 107.861C54.8264 107.888 54.1666 107.907 53.5045 107.919L53.4958 107.419C52.8413 107.43 52.1846 107.434 51.5261 107.43L51.5233 107.93C50.8636 107.927 50.2022 107.915 49.5397 107.897L49.5538 107.397C48.8991 107.378 48.2433 107.353 47.587 107.319L47.5618 107.819C46.9027 107.786 46.2431 107.745 45.5834 107.697L45.6197 107.198C44.9651 107.151 44.3104 107.096 43.6563 107.033L43.6089 107.531C42.9513 107.468 42.2943 107.399 41.6384 107.321L41.6968 106.825C41.0443 106.748 40.3929 106.664 39.7431 106.572L39.6734 107.067C39.0186 106.975 38.3654 106.876 37.7144 106.769L37.7954 106.275C37.1461 106.169 36.499 106.055 35.8546 105.934L35.7621 106.425C35.1125 106.303 34.4656 106.173 33.822 106.036L33.9262 105.547C33.2815 105.409 32.6402 105.264 32.0028 105.112L31.8866 105.598C31.2421 105.444 30.6015 105.282 29.9655 105.113L30.0942 104.63C29.4585 104.461 28.8275 104.284 28.2017 104.099L28.0603 104.579C27.4227 104.391 26.7905 104.195 26.1641 103.991L26.3188 103.515C25.6926 103.312 25.0724 103.1 24.4588 102.88L24.2903 103.351C23.6656 103.128 23.0477 102.896 22.437 102.656L22.6199 102.191C22.0051 101.949 21.3979 101.699 20.7991 101.441L20.6011 101.9C19.9912 101.637 19.3896 101.366 18.7972 101.085L19.0109 100.633C18.4158 100.352 17.8302 100.062 17.2548 99.7634L17.0245 100.207C16.4323 99.8998 15.8505 99.5833 15.2799 99.2576L15.5278 98.8234C14.9558 98.4968 14.3954 98.1612 13.8474 97.8164L13.5811 98.2396C13.0191 97.8859 12.4697 97.5227 11.9338 97.1497L12.2194 96.7393C11.678 96.3625 11.1507 95.976 10.6385 95.5797L10.3325 95.9751C9.80516 95.5671 9.2932 95.1486 8.79759 94.7197L9.12478 94.3416C8.62895 93.9125 8.15002 93.4731 7.68892 93.0234L7.33982 93.3813C6.86431 92.9176 6.40715 92.4428 5.96935 91.9569L6.3408 91.6222C5.90255 91.1358 5.48434 90.6385 5.08713 90.1303L4.69317 90.4382C4.28408 89.9147 3.89659 89.3796 3.53179 88.8327L3.94774 88.5552C3.80158 88.3361 3.65916 88.1151 3.52057 87.8923L3.61997 87.1964L3.125 87.1257L3.375 85.3757L3.86997 85.4464L4.11997 83.6964L3.625 83.6257L3.875 81.8757L4.36997 81.9464L4.61997 80.1964L4.125 80.1257L4.375 78.3757L4.86997 78.4464L5.11997 76.6964L4.625 76.6257L4.875 74.8757L5.36997 74.9464L5.49497 74.0714C5.5149 73.932 5.47507 73.7906 5.38529 73.682C5.29552 73.5735 5.16412 73.5078 5.02341 73.5012C4.73943 73.4879 4.52725 73.3362 4.3498 72.9856L3.90369 73.2114C3.5278 72.4688 3.46168 71.3382 3.46692 70.4225L3.96691 70.4254C3.96876 70.1027 3.97971 69.8066 3.989 69.5599L3.99048 69.5208C3.99869 69.304 4.00645 69.0991 3.99918 68.9722C3.99925 68.9732 3.99925 68.9728 3.99926 68.9705C3.99928 68.9642 3.99937 68.9434 4.001 68.9012C4.00297 68.8506 4.00657 68.7827 4.01187 68.6974C4.02245 68.5272 4.03928 68.2964 4.06155 68.0135L3.56309 67.9743C3.60506 67.4411 3.66563 66.7314 3.73845 65.9085L4.23651 65.9525C4.29229 65.3221 4.35528 64.6249 4.42263 63.8895L3.92471 63.8439C3.98552 63.1797 4.04986 62.4846 4.11563 61.7794L4.61347 61.8258C4.67728 61.1414 4.74244 60.4476 4.80701 59.7634L4.30922 59.7164C4.37576 59.0114 4.44167 58.3167 4.50484 57.6532L5.00259 57.7006C5.07256 56.9658 5.13917 56.2694 5.19955 55.64L4.70183 55.5922C4.78077 54.7693 4.84905 54.0608 4.90029 53.5305L5.39797 53.5786L5.47128 52.8209L5.49088 52.6188L5.49594 52.5667L5.49722 52.5535L5.49755 52.5502L5.49763 52.5494L5.49765 52.5491L5.49765 52.5491L5.49765 52.5491L5 52.5007L5.49765 52.5491C5.49956 52.5295 5.5003 52.5098 5.49989 52.4901C5.49248 52.1398 5.55122 51.7426 5.66005 51.3251L5.17621 51.199C5.40782 50.3105 5.82897 49.4167 6.20827 48.7818L6.63749 49.0383C6.76083 48.8319 6.87288 48.6656 6.96484 48.5434C7.00694 48.558 7.05115 48.5718 7.09537 48.5848C7.26899 48.6361 7.51559 48.6965 7.82278 48.765L7.93164 48.277C8.39654 48.3807 9.02756 48.5087 9.80678 48.6584L9.71249 49.1494C10.2816 49.2587 10.929 49.3794 11.6475 49.5103L11.7371 49.0184C12.3324 49.1269 12.9769 49.2426 13.6668 49.3648L13.5796 49.8572C14.1913 49.9656 14.8387 50.0791 15.5188 50.1973L15.6044 49.7047C16.2289 49.8133 16.8812 49.9259 17.559 50.0422L17.4745 50.535C18.0912 50.6407 18.7291 50.7495 19.3866 50.8611L19.4702 50.3682C20.096 50.4744 20.7396 50.5832 21.3995 50.6943L21.3165 51.1874C21.9544 51.2947 22.6076 51.4043 23.2748 51.5158L23.3573 51.0227C23.9812 51.127 24.6175 51.233 25.265 51.3407L25.183 51.8339C25.821 51.94 26.4699 52.0475 27.1288 52.1565L27.2104 51.6632C27.8432 51.7679 28.4852 51.8738 29.1355 51.9809L29.0543 52.4743C29.6924 52.5793 30.3385 52.6855 30.9918 52.7927L31.0727 52.2993C31.7104 52.4039 32.355 52.5094 33.0056 52.6158L32.925 53.1092C33.564 53.2137 34.2089 53.3189 34.859 53.4249L34.9394 52.9314C35.5797 53.0357 36.225 53.1407 36.8746 53.2463L36.7944 53.7398C37.4349 53.8439 38.0797 53.9485 38.7279 54.0536L38.8079 53.56C39.4497 53.6641 40.0949 53.7685 40.743 53.8733L40.6632 54.3669C41.3055 54.4707 41.9505 54.5749 42.5977 54.6794L42.6773 54.1857C43.3202 54.2895 43.9652 54.3934 44.6117 54.4975L44.5322 54.9912L46.4677 55.3025L46.5471 54.8088C47.191 54.9123 47.8358 55.0159 48.481 55.1194L48.4018 55.613L50.3378 55.9234L50.4168 55.4297C51.062 55.533 51.707 55.6362 52.351 55.7392L52.2721 56.2329L54.2076 56.5422L54.2864 56.0484C54.9332 56.1517 55.5785 56.2546 56.2217 56.3572L56.143 56.851L58.0774 57.1592L58.156 56.6654C58.8046 56.7686 59.4504 56.8714 60.0928 56.9735L60.0142 57.4673L61.9477 57.7746L62.0261 57.2808C62.6765 57.384 63.3226 57.4866 63.9637 57.5883L63.8854 58.0821L65.8193 58.3887L65.8975 57.8949C66.5493 57.9981 67.1949 58.1003 67.8337 58.2014L67.7556 58.6953L69.6932 59.0018L69.7712 58.5079C70.4229 58.6109 71.0663 58.7126 71.7006 58.8127L71.6226 59.3066L73.5689 59.6138L73.6468 59.1199C74.2955 59.2223 74.9331 59.3228 75.5583 59.4213L75.4805 59.9152L77.4414 60.2241L77.5191 59.7302C78.1795 59.8341 78.8235 59.9355 79.4499 60.034L79.3722 60.5279L81.2916 60.8296L81.3692 60.3357C82.0481 60.4423 82.7015 60.545 83.3274 60.6432L83.2498 61.1371L85.1921 61.4418L85.2695 60.9478C85.9613 61.0563 86.608 61.1576 87.2056 61.2512L87.1283 61.7452L89.0693 62.049L89.1465 61.555C89.9286 61.6773 90.564 61.7766 91.0349 61.8501L90.9578 62.3441L91.4472 62.4205L91.3784 63.0048L91.875 63.0632Z" fill="#CAAFA7" stroke="#87635A" stroke-linejoin="round" stroke-dasharray="2 2"/>
<path d="M89.0923 61.007L91.0308 61.3357L90.9472 61.8286L91.3901 61.9037C91.358 62.0016 91.3211 62.0978 91.2793 62.1924L91.7367 62.3944C91.4992 62.9323 91.1269 63.4254 90.6254 63.881L90.2892 63.511C89.9036 63.8613 89.4262 64.1953 88.8538 64.5145L89.0973 64.9512C88.5949 65.2314 88.0308 65.4962 87.4071 65.748L87.2199 65.2844C86.6915 65.4977 86.1165 65.7026 85.4957 65.9005L85.6475 66.3768C85.0836 66.5566 84.4847 66.7299 83.8518 66.898L83.7234 66.4147C83.4317 66.4922 83.1324 66.5686 82.8256 66.6441C82.4889 66.727 82.1441 66.8065 81.7914 66.8828L81.8971 67.3715C81.2201 67.5179 80.5154 67.6521 79.7847 67.774L79.7025 67.2808C79.0224 67.3942 78.319 67.497 77.5937 67.5889L77.6565 68.0849C76.9626 68.1729 76.2493 68.251 75.5178 68.3191L75.4715 67.8212C74.7776 67.8858 74.0669 67.9414 73.3405 67.9879L73.3724 68.4869C72.6704 68.5318 71.9541 68.5683 71.2244 68.5963L71.2052 68.0966C70.5045 68.1235 69.7913 68.1425 69.0663 68.1535L69.0739 68.6534C68.3674 68.6642 67.65 68.6674 66.9224 68.663L66.9254 68.163C66.2212 68.1588 65.5073 68.1474 64.7845 68.1289L64.7717 68.6288C64.0634 68.6106 63.3466 68.5856 62.6221 68.5537L62.6441 68.0541C62.2891 68.0385 61.9322 68.0212 61.5734 68.0022C61.2614 67.9857 60.9422 67.9678 60.6164 67.9485L60.5868 68.4476C59.9683 68.411 59.3262 68.3694 58.664 68.3229L58.699 67.8241C58.0765 67.7805 57.4361 67.7326 56.7809 67.6805L56.7413 68.1789C56.1134 68.129 55.4721 68.0753 54.8198 68.0179L54.8636 67.5198C54.2343 67.4645 53.5948 67.4056 52.9476 67.3435L52.8998 67.8412C52.2669 67.7804 51.6266 67.7164 50.9811 67.6494L51.0328 67.1521C50.3993 67.0863 49.7609 67.0175 49.1195 66.9458L49.064 67.4427C48.4277 67.3716 47.7886 67.2976 47.1487 67.2209L47.2082 66.7244C46.5719 66.6481 45.935 66.5691 45.2992 66.4875L45.2355 66.9834C44.5966 66.9013 43.9588 66.8166 43.3243 66.7293L43.3925 66.2339C42.7537 66.146 42.1183 66.0555 41.4885 65.9624L41.4154 66.457C40.7737 66.3622 40.1377 66.2648 39.5094 66.1648L39.588 65.671C38.9469 65.569 38.3141 65.4644 37.692 65.3572L37.6071 65.85C36.9624 65.7389 36.329 65.6252 35.7094 65.5088L35.8017 65.0174C35.1578 64.8964 34.5294 64.7727 33.9191 64.6464L33.8178 65.136C33.169 65.0017 32.5405 64.8643 31.9355 64.724L32.0485 64.2369C31.7322 64.1636 31.4225 64.0895 31.1201 64.0146C30.809 63.9377 30.5041 63.8608 30.2051 63.784L30.0807 64.2683C29.446 64.1052 28.8375 63.9424 28.2524 63.7793L28.3867 63.2977C27.7587 63.1226 27.1582 62.9474 26.5818 62.7714L26.4357 63.2496C25.809 63.0581 25.2101 62.8656 24.6345 62.6713L24.7945 62.1976C24.1804 61.9902 23.5935 61.7808 23.0282 61.5684L22.8523 62.0364C22.2441 61.8079 21.6605 61.5758 21.0946 61.3389L21.2877 60.8777C20.6993 60.6314 20.1304 60.3799 19.5732 60.1218L19.363 60.5755C18.7857 60.308 18.221 60.0336 17.6605 59.7508L17.8858 59.3044C17.3298 59.0238 16.7774 58.7344 16.2202 58.4348L15.9834 58.8752C15.4371 58.5814 14.887 58.2782 14.3253 57.9642L14.5693 57.5278C14.2981 57.3761 14.0239 57.2218 13.746 57.0647C13.4542 56.8998 13.1747 56.7329 12.9068 56.5644L12.6406 56.9876C12.0425 56.6113 11.5 56.226 11.0087 55.8347L11.3201 55.4436C10.7817 55.0148 10.3085 54.5802 9.89387 54.1443L9.53161 54.489C9.04056 53.9728 8.62603 53.4524 8.27866 52.9343L8.69394 52.6559C8.31525 52.0911 8.02178 51.5314 7.79906 50.9862L7.33619 51.1753C7.06594 50.5137 6.89282 49.8688 6.79567 49.2554L7.28951 49.1772C7.23864 48.856 7.21001 48.5444 7.20007 48.2449C7.19132 47.9811 7.2123 47.7236 7.26218 47.4718L6.77172 47.3747C6.88348 46.8107 7.12198 46.2697 7.48352 45.7546L7.89275 46.0419C8.17774 45.6359 8.55365 45.239 9.02475 44.8552L8.70895 44.4676C9.13572 44.1199 9.62881 43.7882 10.1867 43.4737L10.4322 43.9093C10.8993 43.646 11.4167 43.3936 11.984 43.1533L11.7891 42.6929C12.3077 42.4733 12.8644 42.2648 13.4584 42.0678L13.6157 42.5424C13.8862 42.4528 14.1648 42.3655 14.4517 42.2806C14.7401 42.1953 15.0457 42.1127 15.3674 42.0328L15.247 41.5475C15.834 41.4019 16.4699 41.2662 17.1474 41.1404L17.2387 41.632C17.8393 41.5205 18.4741 41.4167 19.1379 41.3206L19.0663 40.8258C19.6867 40.736 20.3313 40.653 20.9959 40.5769L21.0528 41.0736C21.6765 41.0021 22.3182 40.9367 22.9745 40.8772L22.9294 40.3792C23.5635 40.3217 24.2107 40.2699 24.868 40.2236L24.9031 40.7223C25.5385 40.6775 26.1835 40.638 26.8352 40.6036L26.8089 40.1043C27.4511 40.0705 28.0997 40.0417 28.7518 40.0179L28.77 40.5176C29.4127 40.4942 30.0589 40.4756 30.706 40.462L30.6955 39.9621C31.3436 39.9485 31.9926 39.9397 32.6398 39.9358L32.6429 40.4358C33.2913 40.4319 33.938 40.4329 34.5801 40.4388L34.5847 39.9388C35.2383 39.9448 35.8874 39.9559 36.5289 39.972L36.5164 40.4718C36.8408 40.4799 37.1632 40.4894 37.4834 40.5001C37.8215 40.5114 38.1577 40.5227 38.4922 40.5341L38.5092 40.0344C39.1878 40.0576 39.8595 40.0812 40.5257 40.1062L40.507 40.6058C41.1837 40.6312 41.8544 40.658 42.5207 40.6872L42.5426 40.1877C43.2183 40.2173 43.8898 40.2495 44.5583 40.2851L44.5317 40.7844C45.2038 40.8202 45.8727 40.8595 46.54 40.9034L46.5728 40.4045C47.2446 40.4487 47.915 40.4975 48.5856 40.552L48.545 41.0504C49.2116 41.1046 49.878 41.1644 50.5459 41.2309L50.5954 40.7334C51.262 40.7998 51.9302 40.8728 52.6015 40.9534L52.5418 41.4499C53.2019 41.5292 53.8649 41.616 54.5322 41.7111L54.6028 41.2162C55.2627 41.3103 55.9269 41.4126 56.5967 41.5241L56.5147 42.0173C57.1672 42.1259 57.8251 42.2432 58.4897 42.3701L58.5835 41.879C59.2359 42.0036 59.8947 42.1374 60.5611 42.2813L60.4556 42.77C60.4806 42.7754 60.5056 42.7808 60.5307 42.7863L60.4377 42.876L60.7849 43.2358L59.2608 44.7069L58.9136 44.3472L57.3894 45.8183L57.7367 46.178L56.2126 47.6492L55.8653 47.2894L54.3412 48.7605L54.6884 49.1203L53.1643 50.5914L52.8171 50.2317L51.2929 51.7028L51.6402 52.0625L50.1161 53.5337L49.7688 53.1739L49.0068 53.9095C48.871 54.0405 48.8206 54.2367 48.8763 54.4169C48.932 54.5971 49.0844 54.7307 49.2704 54.7622L50.2396 54.9265L50.3232 54.4336L52.2617 54.7622L52.1781 55.2552L54.1165 55.5839L54.2001 55.0909L56.1386 55.4196L56.055 55.9125L57.9935 56.2412L58.077 55.7482L60.0155 56.0769L59.9319 56.5699L61.8704 56.8986L61.9539 56.4056L63.8924 56.7343L63.8088 57.2272L65.7473 57.5559L65.8309 57.0629L67.7693 57.3916L67.6857 57.8846L69.6242 58.2132L69.7078 57.7203L71.6462 58.0489L71.5626 58.5419L73.5011 58.8706L73.5847 58.3776L75.5231 58.7063L75.4396 59.1993L77.378 59.5279L77.4616 59.035L79.4 59.3636L79.3165 59.8566L81.2549 60.1853L81.3385 59.6923L83.277 60.021L83.1934 60.5139L85.1318 60.8426L85.2154 60.3496L87.1539 60.6783L87.0703 61.1713L89.0087 61.5L89.0923 61.007Z" fill="#CAAFA7" stroke="#87635A" stroke-linejoin="round" stroke-dasharray="2 2"/>
</svg>
